<svg xmlns="http://www.w3.org/2000/svg" viewBox="0 0 180 180" role="img" aria-label="Tempest Jiu-Jitsu Vienna">
  <rect width="180" height="180" rx="34" fill="#0b0c10"/>
  <g fill="none" stroke="#ffffff" stroke-linecap="round">
    <path d="M40 100c-8-36 18-67 54-67 23 0 44 13 54 34" stroke-width="13"/>
    <path d="M51 122c-19-25-8-62 21-76 22-11 49-6 65 12" stroke-width="11"/>
    <path d="M70 139c-25-13-31-47-13-68 16-19 45-22 64-6" stroke-width="10"/>
    <path d="M96 144c-24 1-44-18-44-42 0-20 14-37 33-41" stroke-width="9"/>
    <path d="M119 131c-19 12-44 7-57-12-11-17-8-40 7-54" stroke-width="9"/>
    <path d="M137 106c-8 22-32 34-54 26-20-7-32-27-28-48" stroke-width="9"/>
    <path d="M140 79c5 23-10 46-33 51-19 4-39-6-47-24" stroke-width="8"/>
  </g>
  <circle cx="96" cy="92" r="18" fill="#0b0c10"/>
  <path d="M145 132h20" stroke="#d61f2c" stroke-width="8" stroke-linecap="round"/>
</svg>
